<svg width="140" height="113" viewBox="0 0 140 113" fill="none" xmlns="http://www.w3.org/2000/svg">
<rect width="140" height="113" rx="8"/>
<path opacity="0.8" d="M17.82 77.44C17.82 77.92 17.7467 78.3933 17.6 78.86C17.4667 79.3267 17.2333 79.7467 16.9 80.12C16.58 80.48 16.1467 80.7733 15.6 81C15.0667 81.2133 14.4 81.32 13.6 81.32C12.2667 81.32 11.24 80.9733 10.52 80.28C9.8 79.5733 9.44 78.54 9.44 77.18V76.3H11.34V76.9C11.34 77.3133 11.3733 77.6933 11.44 78.04C11.5067 78.3867 11.62 78.6867 11.78 78.94C11.9533 79.1933 12.1867 79.3933 12.48 79.54C12.7867 79.6733 13.1733 79.74 13.64 79.74C14.5067 79.74 15.1 79.5067 15.42 79.04C15.7533 78.5733 15.92 77.9467 15.92 77.16V66.72H17.82V77.44ZM29.8111 80.96C29.5178 81.1333 29.1111 81.22 28.5911 81.22C28.1511 81.22 27.7978 81.1 27.5311 80.86C27.2778 80.6067 27.1511 80.2 27.1511 79.64C26.6844 80.2 26.1378 80.6067 25.5111 80.86C24.8978 81.1 24.2311 81.22 23.5111 81.22C23.0444 81.22 22.5978 81.1667 22.1711 81.06C21.7578 80.9533 21.3978 80.7867 21.0911 80.56C20.7844 80.3333 20.5378 80.04 20.3511 79.68C20.1778 79.3067 20.0911 78.86 20.0911 78.34C20.0911 77.7533 20.1911 77.2733 20.3911 76.9C20.5911 76.5267 20.8511 76.2267 21.1711 76C21.5044 75.76 21.8778 75.58 22.2911 75.46C22.7178 75.34 23.1511 75.24 23.5911 75.16C24.0578 75.0667 24.4978 75 24.9111 74.96C25.3378 74.9067 25.7111 74.84 26.0311 74.76C26.3511 74.6667 26.6044 74.54 26.7911 74.38C26.9778 74.2067 27.0711 73.96 27.0711 73.64C27.0711 73.2667 26.9978 72.9667 26.8511 72.74C26.7178 72.5133 26.5378 72.34 26.3111 72.22C26.0978 72.1 25.8511 72.02 25.5711 71.98C25.3044 71.94 25.0378 71.92 24.7711 71.92C24.0511 71.92 23.4511 72.06 22.9711 72.34C22.4911 72.6067 22.2311 73.12 22.1911 73.88H20.4911C20.5178 73.24 20.6511 72.7 20.8911 72.26C21.1311 71.82 21.4511 71.4667 21.8511 71.2C22.2511 70.92 22.7044 70.72 23.2111 70.6C23.7311 70.48 24.2844 70.42 24.8711 70.42C25.3378 70.42 25.7978 70.4533 26.2511 70.52C26.7178 70.5867 27.1378 70.7267 27.5111 70.94C27.8844 71.14 28.1844 71.4267 28.4111 71.8C28.6378 72.1733 28.7511 72.66 28.7511 73.26V78.58C28.7511 78.98 28.7711 79.2733 28.8111 79.46C28.8644 79.6467 29.0244 79.74 29.2911 79.74C29.4378 79.74 29.6111 79.7067 29.8111 79.64V80.96ZM27.0511 75.66C26.8378 75.82 26.5578 75.94 26.2111 76.02C25.8644 76.0867 25.4978 76.1467 25.1111 76.2C24.7378 76.24 24.3578 76.2933 23.9711 76.36C23.5844 76.4133 23.2378 76.5067 22.9311 76.64C22.6244 76.7733 22.3711 76.9667 22.1711 77.22C21.9844 77.46 21.8911 77.7933 21.8911 78.22C21.8911 78.5 21.9444 78.74 22.0511 78.94C22.1711 79.1267 22.3178 79.28 22.4911 79.4C22.6778 79.52 22.8911 79.6067 23.1311 79.66C23.3711 79.7133 23.6244 79.74 23.8911 79.74C24.4511 79.74 24.9311 79.6667 25.3311 79.52C25.7311 79.36 26.0578 79.1667 26.3111 78.94C26.5644 78.7 26.7511 78.4467 26.8711 78.18C26.9911 77.9 27.0511 77.64 27.0511 77.4V75.66ZM31.3933 70.66H32.9933V72.3H33.0333C33.7399 71.0467 34.8599 70.42 36.3933 70.42C37.0733 70.42 37.6399 70.5133 38.0933 70.7C38.5466 70.8867 38.9133 71.1467 39.1933 71.48C39.4733 71.8133 39.6666 72.2133 39.7733 72.68C39.8933 73.1333 39.9533 73.64 39.9533 74.2V81H38.2533V74C38.2533 73.36 38.0666 72.8533 37.6933 72.48C37.3199 72.1067 36.8066 71.92 36.1533 71.92C35.6333 71.92 35.1799 72 34.7933 72.16C34.4199 72.32 34.1066 72.5467 33.8533 72.84C33.5999 73.1333 33.4066 73.48 33.2733 73.88C33.1533 74.2667 33.0933 74.6933 33.0933 75.16V81H31.3933V70.66ZM42.8866 78.78H45.1066V81H42.8866V78.78Z" fill="#878787"/>
<path d="M117.694 31H109.018C109.018 38.1684 103.205 43.981 96.0371 43.981V52.6566C107.998 52.6566 117.694 42.9608 117.694 31Z" fill="#878787"/>
<path d="M116.974 72.4754V52.6562H109.24V72.4754H95.5879V80.2094H130.713V72.4754H116.974Z" fill="#878787"/>
<path d="M70.5 32C59.7304 32 51 42.745 51 56C51 69.255 59.7304 80 70.5 80C81.2696 80 90 69.255 90 56C90 42.745 81.2723 32 70.5 32ZM70.5 71.0234C63.759 71.0234 58.2928 64.2983 58.2928 56C58.2928 47.7017 63.759 40.9766 70.5 40.9766C77.241 40.9766 82.7072 47.7017 82.7072 56C82.7072 64.2983 77.241 71.0234 70.5 71.0234Z" fill="#878787"/>
</svg>
