<svg width="26" height="26" viewBox="0 0 26 26" fill="none" xmlns="http://www.w3.org/2000/svg">
<rect x="0.839844" width="25.1034" height="25.1034" rx="4" fill="#7EFF66"/>
<mask id="mask0_126_1754" style="mask-type:luminance" maskUnits="userSpaceOnUse" x="0" y="0" width="26" height="26">
<path d="M25.9999 0H0.839844V25.16H25.9999V0Z" fill="white"/>
</mask>
<g mask="url(#mask0_126_1754)">
<path d="M-2.26254 30.1265C-8.59192 30.1265 -13.7407 24.9769 -13.7407 18.6483C-13.7407 12.3196 -8.59118 7.1701 -2.26254 7.1701H12.2834L10.611 5.49767L13.0598 3.04883L16.4641 6.45313L16.4656 6.45164L18.9166 8.90271L16.4656 11.3538L16.444 11.3716L13.059 14.7566L10.6102 12.307L12.2826 10.6346H5.94954L5.99487 10.6821C8.07148 12.8338 9.21491 15.6638 9.21491 18.6498C9.21491 24.9792 4.06536 30.128 -2.26328 30.128L-2.26254 30.1265ZM-2.25659 11.1725C-2.37101 11.1725 -2.48617 11.1755 -2.60059 11.1799C-4.59547 11.2706 -6.43507 12.1324 -7.78208 13.6065C-9.12835 15.0805 -9.82006 16.9915 -9.73016 18.9863C-9.54887 22.9887 -6.27088 26.1233 -2.26848 26.1233C-2.15406 26.1233 -2.0389 26.1204 -1.92448 26.1159C2.19307 25.9294 5.39157 22.427 5.20509 18.3095C5.0238 14.3071 1.7458 11.1725 -2.25659 11.1725Z" fill="#333333"/>
<path d="M13.0607 3.08754L16.4256 6.45247L16.4665 6.48962L18.8782 8.90131L16.4665 11.313L16.465 11.3115L16.4256 11.3509L13.0607 14.7158L10.6512 12.3064L12.2568 10.7008L12.3519 10.6057H5.8858L5.97719 10.7C8.0486 12.8465 9.18906 15.669 9.18906 18.6484C9.18906 21.6277 7.99808 24.5825 5.83528 26.7453C3.67249 28.9081 0.797184 30.0991 -2.26163 30.0991C-5.32045 30.0991 -8.19576 28.9081 -10.3586 26.7453C-12.5213 24.5825 -13.7123 21.7072 -13.7123 18.6484C-13.7123 15.5896 -12.5213 12.7142 -10.3586 10.5514C-8.19576 8.38866 -5.32045 7.19767 -2.26163 7.19767H12.3519L12.2568 7.10257L10.6512 5.49701L13.0607 3.08754ZM-2.26758 26.1516C-2.15316 26.1516 -2.03651 26.1487 -1.9221 26.1435C0.0802164 26.0528 1.92725 25.188 3.27872 23.708C4.63018 22.228 5.32486 20.3104 5.23348 18.3081C5.14581 16.366 4.32259 14.5576 2.9154 13.2172C1.51341 11.8806 -0.323217 11.1443 -2.25569 11.1443C-2.37011 11.1443 -2.48676 11.1473 -2.60117 11.1525C-6.73433 11.3397 -9.94397 14.8547 -9.75675 18.9879C-9.66907 20.93 -8.84586 22.7377 -7.43867 24.0788C-6.03668 25.4154 -4.19931 26.1516 -2.26684 26.1516M13.0607 3.00879L10.5717 5.49775L12.2167 7.14269H-2.26238C-8.61703 7.14269 -13.7688 12.2945 -13.7688 18.6491C-13.7688 25.0038 -8.61703 30.1555 -2.26238 30.1555C4.09227 30.1555 9.24404 25.0038 9.24404 18.6491C9.24404 15.5457 8.01368 12.7321 6.01657 10.6622H12.2167L10.5717 12.3071L13.0607 14.7961L16.465 11.3918L16.4665 11.3932L18.9554 8.90428L18.954 8.90279L18.9554 8.90131L16.4665 6.41235L16.465 6.41383L13.0607 3.00953V3.00879ZM-2.26758 26.0959C-6.22614 26.0959 -9.52048 22.9799 -9.70177 18.9857C-9.88825 14.877 -6.70833 11.3947 -2.59895 11.2082C-2.48453 11.203 -2.36936 11.2008 -2.25569 11.2008C1.70287 11.2008 4.99721 14.3168 5.1785 18.3111C5.36498 22.4197 2.18506 25.902 -1.92433 26.0878C-2.03874 26.093 -2.1539 26.0952 -2.26758 26.0952V26.0959Z" fill="#333333"/>
<path d="M22.6591 30.2314C22.6591 29.9914 22.6621 29.7507 22.6717 29.5093C23.0618 19.1782 31.5629 11.0687 41.8159 11.0754V7.26465C29.1311 7.26465 18.8484 17.5474 18.8484 30.2322H22.6591V30.2314Z" fill="#333333"/>
</g>
</svg>
